<svg xmlns="http://www.w3.org/2000/svg" viewBox="0 0 320 320" role="img" aria-labelledby="title desc">
  <title id="title">A cheerful robot assistant</title>
  <desc id="desc">A smiling blue robot waves beside a yellow star.</desc>
  <defs>
    <linearGradient id="body" x1="0" x2="1" y2="1"><stop stop-color="#8de4ed"/><stop offset="1" stop-color="#62a8ed"/></linearGradient>
  </defs>
  <circle cx="160" cy="160" r="140" fill="#eaf5ff"/>
  <path d="M144 60V43m0 0 17-12" stroke="#324b7b" stroke-width="9" stroke-linecap="round"/>
  <circle cx="163" cy="30" r="13" fill="#ffd26a"/>
  <path d="m237 56 7 15 16 3-12 11 2 17-13-8-14 8 3-17-12-11 16-3z" fill="#ffd26a"/>
  <path d="M88 239c9-29 38-45 72-45s63 16 72 45v28H88z" fill="url(#body)" stroke="#324b7b" stroke-width="8" stroke-linejoin="round"/>
  <path d="M88 205c-24-22-33-49-22-59 9-8 20 8 29 20" fill="none" stroke="#324b7b" stroke-width="17" stroke-linecap="round"/>
  <path d="M232 205c26-22 34-49 24-59-8-8-20 8-29 20" fill="none" stroke="#324b7b" stroke-width="17" stroke-linecap="round"/>
  <rect x="66" y="83" width="188" height="126" rx="50" fill="url(#body)" stroke="#324b7b" stroke-width="8"/>
  <rect x="88" y="105" width="144" height="83" rx="31" fill="#f5fcff"/>
  <circle cx="128" cy="141" r="9" fill="#324b7b"/><circle cx="192" cy="141" r="9" fill="#324b7b"/>
  <path d="M139 164q21 19 42 0" fill="none" stroke="#324b7b" stroke-width="6" stroke-linecap="round"/>
  <circle cx="103" cy="163" r="10" fill="#ffb9ac" opacity=".7"/><circle cx="217" cy="163" r="10" fill="#ffb9ac" opacity=".7"/>
  <rect x="139" y="225" width="42" height="26" rx="10" fill="#f5fcff" stroke="#324b7b" stroke-width="6"/>
</svg>
